<svg width="20" height="20" viewBox="0 0 20 20" fill="none" xmlns="http://www.w3.org/2000/svg">
<path d="M17.5 10.6583C17.3689 12.0768 16.8366 13.4287 15.9652 14.5557C15.0939 15.6826 13.9196 16.5382 12.5798 17.0221C11.2399 17.5061 9.78999 17.5984 8.39959 17.2884C7.00918 16.9784 5.73583 16.2788 4.72852 15.2715C3.72122 14.2642 3.02162 12.9908 2.71159 11.6004C2.40156 10.21 2.49393 8.76007 2.97789 7.42025C3.46184 6.08042 4.31736 4.90614 5.44435 4.03479C6.57133 3.16345 7.92317 2.63109 9.34167 2.5C8.51118 3.62356 8.11154 5.00787 8.21545 6.40118C8.31935 7.79448 8.91989 9.10422 9.90784 10.0922C10.8958 11.0801 12.2055 11.6807 13.5988 11.7846C14.9921 11.8885 16.3764 11.4888 17.5 10.6583V10.6583Z" stroke="#707A99" stroke-width="2" stroke-linecap="round" stroke-linejoin="round"/>
</svg>
