<svg width="22" height="24" viewBox="0 0 22 24" fill="none" xmlns="http://www.w3.org/2000/svg">
<path d="M19.33 13.0967C19.3767 12.7467 19.4 12.385 19.4 12C19.4 11.6267 19.3767 11.2533 19.3183 10.9033L21.6867 9.06C21.8967 8.89667 21.955 8.58167 21.8267 8.34834L19.5867 4.475C19.4467 4.21834 19.155 4.13667 18.8983 4.21834L16.11 5.33834C15.5267 4.895 14.9083 4.52167 14.22 4.24167L13.8 1.27834C13.7533 0.998336 13.52 0.800003 13.24 0.800003H8.75998C8.47999 0.800003 8.25832 0.998336 8.21165 1.27834L7.79165 4.24167C7.10332 4.52167 6.47332 4.90667 5.90165 5.33834L3.11332 4.21834C2.85665 4.125 2.56499 4.21834 2.42499 4.475L0.196652 8.34834C0.0566523 8.59334 0.103319 8.89667 0.336652 9.06L2.70499 10.9033C2.64665 11.2533 2.59999 11.6383 2.59999 12C2.59999 12.3617 2.62332 12.7467 2.68165 13.0967L0.313319 14.94C0.103319 15.1033 0.0449856 15.4183 0.173319 15.6517L2.41332 19.525C2.55332 19.7817 2.84499 19.8633 3.10165 19.7817L5.88999 18.6617C6.47332 19.105 7.09165 19.4783 7.77998 19.7583L8.19999 22.7217C8.25832 23.0017 8.47999 23.2 8.75998 23.2H13.24C13.52 23.2 13.7533 23.0017 13.7883 22.7217L14.2083 19.7583C14.8967 19.4783 15.5267 19.105 16.0983 18.6617L18.8867 19.7817C19.1433 19.875 19.435 19.7817 19.575 19.525L21.815 15.6517C21.955 15.395 21.8967 15.1033 21.675 14.94L19.33 13.0967ZM11 16.2C8.68999 16.2 6.79998 14.31 6.79998 12C6.79998 9.69 8.68999 7.8 11 7.8C13.31 7.8 15.2 9.69 15.2 12C15.2 14.31 13.31 16.2 11 16.2Z" fill="#DADADA"/>
</svg>
